<?xml version="1.0" encoding="UTF-8"?>
<svg width="177px" height="48px" viewBox="0 0 177 48" version="1.1" xmlns="http://www.w3.org/2000/svg" xmlns:xlink="http://www.w3.org/1999/xlink">
    <defs>
        <path d="M0,6.63556691 L0,26.126741 C0,36.3903298 14.7964652,44.9958307 19.763054,47.3796838 C20.1860193,47.587849 20.7147259,47.6915297 21.1376912,47.6915297 C21.5606565,47.6915297 22.0885497,47.587849 22.5115151,47.3796838 C27.4789172,44.9958307 42.2753824,36.3903298 42.2753824,26.126741 L42.2753824,6.63556691 C42.2753824,5.28771738 41.4294518,4.14803305 40.2671106,3.73250639 C34.1373672,1.34865326 28.3248478,0 21.1376912,0 C13.9505346,0 8.13801518,1.34865326 2.00827181,3.73250639 C0.845117218,4.14803305 0,5.28771738 0,6.63556691 Z" id="path-1"></path>
        <path d="M48.7491918,12.9537876 C49.0143585,13.3108856 49.0753631,13.3798705 48.7695266,12.9408022 L48.7695266,12.9408022 L48.7491918,12.9537876 Z" id="path-3"></path>
    </defs>
    <g stroke="none" stroke-width="1" fill="none" fill-rule="evenodd">
        <g fill="#000">
        <path d="M83.7626666,24.8416625 C83.4600837,20.5690518 83.0704676,15.0136935 83.0704676,11.9378317 L82.9842477,11.9378317 C81.8170261,15.0136935 80.4765515,18.3467478 78.6171309,22.7053572 L71.8716477,38.4286609 L70.2717001,38.4286609 L63.9581295,22.9183447 C62.1418188,18.4319428 60.8013442,15.0136935 59.8504856,11.9378317 L59.7634524,11.9378317 C59.6341226,15.270886 59.4177596,20.5256506 59.0289569,25.2684413 L57.9910651,38.4286609 L55.9152815,38.4286609 L58.250538,9.63033264 L60.6720144,9.63033264 L67.6769706,26.8067741 C69.146775,30.3962171 70.2717001,33.3868839 71.1363388,35.9933693 L71.2225586,35.9933693 C72.0009775,33.5580776 73.1690124,30.6526059 74.81207,26.8501753 L82.1627189,9.63033264 L84.6704152,9.63033264 L86.7461988,38.4286609 L84.6704152,38.4286609 L83.7626666,24.8416625 Z" id="Fill-1"></path>
        <path d="M92.7164354,38.4293842 L94.8353289,38.4293842 L94.8353289,17.9198885 L92.7164354,17.9198885 L92.7164354,38.4293842 Z M93.7112173,13.6898754 C92.7164354,13.6898754 92.0242364,12.7921128 92.0242364,11.8525564 C92.0242364,10.9121962 92.8026553,10.0152373 93.7974371,10.0152373 C94.792219,10.0152373 95.5275279,10.8695987 95.5275279,11.8525564 C95.5275279,12.7921128 94.8353289,13.6898754 93.7543272,13.6898754 L93.7112173,13.6898754 Z" id="Fill-3"></path>
        <path d="M100.500054,17.9197278 L104.478369,22.9615048 C105.47315,24.2008513 106.251569,25.2264064 107.116208,26.4223516 L107.202428,26.4223516 C108.067066,25.2264064 108.932519,24.1582538 109.883377,22.9615048 L113.861691,17.9197278 L116.240058,17.9197278 L108.283429,27.8754894 L116.629674,38.4292235 L114.164274,38.4292235 L110.01352,33.2162527 C108.932519,31.8491137 108.023957,30.5671698 107.073098,29.3278233 L106.986878,29.3278233 C106.121426,30.6523648 105.213677,31.7639187 104.089566,33.2162527 L100.025032,38.4292235 L97.5596322,38.4292235 L105.991283,27.9180869 L98.0785781,17.9197278 L100.500054,17.9197278 Z" id="Fill-5"></path>
        <path d="M121.862731,24.3287242 C123.073062,24.7137092 124.6299,24.8415018 126.272957,24.8415018 C132.067582,24.8415018 135.310587,22.2350164 135.310587,17.7912119 C135.310587,12.8354336 131.333087,11.1259071 126.619464,11.1259071 C124.41435,11.1259071 122.727369,11.3396984 121.862731,11.5108922 L121.862731,24.3287242 Z M119.743837,9.9291582 C121.603258,9.6301719 123.981624,9.37458683 126.662573,9.37458683 C130.554668,9.37458683 133.364947,10.3141432 135.095038,11.937671 C136.564842,13.3056137 137.429481,15.1855302 137.429481,17.5348231 C137.429481,20.0561135 136.651875,22.0212251 135.181257,23.4743628 C133.192507,25.5254731 129.862469,26.5936258 126.014298,26.5936258 C124.50057,26.5936258 123.073062,26.5510283 121.862731,26.1660432 L121.862731,38.4285001 L119.743837,38.4285001 L119.743837,9.9291582 Z" id="Fill-6"></path>
        <path d="M152.696332,27.4906651 C147.20429,27.3194713 140.89072,28.1746364 140.89072,32.9166234 C140.89072,35.8228988 143.010427,37.2326353 145.43109,37.2326353 C149.453327,37.2326353 151.61533,34.8825387 152.436859,33.0452197 C152.610112,32.6176371 152.696332,32.1908583 152.696332,31.8484707 L152.696332,27.4906651 Z M154.814412,33.4719985 C154.814412,35.1389275 154.901445,36.7624553 155.160105,38.4285805 L153.215278,38.4285805 L152.868772,35.26672 L152.781739,35.26672 C151.70155,36.848454 149.063711,38.9413581 145.257837,38.9413581 C140.54584,38.9413581 138.642496,35.7794976 138.642496,33.3016085 C138.642496,28.6448165 143.010427,25.6107485 152.696332,25.738541 L152.696332,25.268361 C152.696332,23.730832 152.349826,19.1158337 146.815488,19.1584313 C144.739704,19.1584313 142.577701,19.6712088 140.848423,20.8679578 L140.156224,19.3722225 C142.447557,17.877291 144.999177,17.407111 146.987927,17.407111 C154.035993,17.407111 154.814412,22.7904718 154.814412,26.0375273 L154.814412,33.4719985 Z" id="Fill-7"></path>
        <path d="M159.227323,17.9197278 L165.411564,31.6353224 C166.01673,32.9598639 166.708115,34.6685867 167.097731,35.9505306 L167.183951,35.9505306 C167.658974,34.6685867 168.221843,33.1310577 168.913229,31.4641287 L174.707853,17.9197278 L177,17.9197278 L169.648538,34.4981966 C166.795149,40.9923077 164.935728,44.1967657 162.167745,46.162681 C160.395358,47.4446249 158.795411,47.9140013 158.362684,48 L157.800629,46.247876 C158.837707,45.9488897 160.308325,45.3509171 161.60569,44.2401669 C162.686691,43.3424043 164.286639,41.6336815 165.58319,38.7282098 C165.756443,38.3432248 165.843477,38.086836 165.843477,37.9164459 C165.843477,37.7452522 165.756443,37.4462659 165.540894,36.9760858 L156.93599,17.9197278 L159.227323,17.9197278 Z" id="Fill-8"></path>
        </g>
        <mask id="mask-2" fill="white"><use xlink:href="#path-1"></use></mask>
        <path d="M42.7268165,-0.44606827 L42.7267525,10.9429317 L18.3169221,23.4881065 C17.6276639,23.8427354 16.8129599,23.8467303 16.1242348,23.5076769 L15.9548236,23.4157711 L8.62776304,18.4648152 C7.86805227,18.0139246 6.99934661,18.8546226 7.4393932,19.6141442 L7.4393932,19.6141442 L14.7021956,30.601087 C15.6188915,32.1820173 17.7288377,32.6144222 19.2059627,31.5237652 L19.2059627,31.5237652 L42.7267525,14.1489317 L42.7268165,48.137598 L-0.45224752,48.137598 L-0.45224752,-0.44606827 L42.7268165,-0.44606827 Z" id="形状结合" fill="#164aff" mask="url(#mask-2)"></path>
        <mask id="mask-4" fill="white"><use xlink:href="#path-3"></use></mask>
    </g>
</svg>